<?xml version="1.0" standalone="no"?>
<!DOCTYPE svg PUBLIC "-//W3C//DTD SVG 20010904//EN"
 "http://www.w3.org/TR/2001/REC-SVG-20010904/DTD/svg10.dtd">
<svg version="1.0" xmlns="http://www.w3.org/2000/svg"
 width="512.000000pt" height="512.000000pt" viewBox="0 0 512.000000 512.000000"
 preserveAspectRatio="xMidYMid meet">

<g transform="translate(0.000000,512.000000) scale(0.100000,-0.100000)"
fill="#fff" stroke="none">
<path d="M3284 5104 c-97 -35 -168 -129 -168 -224 0 -68 1 -69 204 -402 88
-143 160 -263 160 -267 0 -23 -268 -214 -381 -271 -85 -44 -256 -100 -302
-100 -53 0 -129 -21 -186 -49 -43 -22 -48 -23 -170 -12 -226 20 -450 78 -662
172 -96 42 -117 53 -288 152 -88 51 -113 62 -162 65 -102 8 -193 -57 -232
-165 -25 -69 -22 -129 9 -191 31 -63 64 -90 220 -179 321 -184 642 -288 1034
-338 l45 -6 169 -627 c93 -345 170 -631 172 -637 6 -20 -620 -513 -830 -653
-136 -91 -166 -123 -186 -201 -26 -100 35 -232 130 -281 148 -76 216 -35 1048
632 176 142 279 218 294 218 21 0 29 -17 82 -163 33 -89 83 -220 112 -292 l52
-129 -65 -76 c-237 -273 -517 -670 -550 -780 -35 -115 45 -247 173 -286 67
-20 111 -17 170 10 56 26 81 55 173 201 128 202 298 421 494 638 158 175 161
209 44 502 -197 493 -284 764 -481 1506 -86 322 -156 588 -156 591 0 4 48 32
107 63 190 101 363 230 544 406 86 84 109 113 122 153 20 59 21 118 3 166 -15
42 -458 765 -489 799 -57 62 -167 85 -253 55z"/>
<path d="M2450 4862 c-209 -57 -350 -270 -319 -482 14 -100 30 -136 91 -217
124 -163 353 -213 544 -119 201 100 294 337 214 548 -79 210 -313 330 -530
270z"/>
</g>
</svg>
