<?xml version="1.0" standalone="no"?>
<!DOCTYPE svg PUBLIC "-//W3C//DTD SVG 20010904//EN"
 "http://www.w3.org/TR/2001/REC-SVG-20010904/DTD/svg10.dtd">
<svg version="1.0" xmlns="http://www.w3.org/2000/svg"
 width="512.000000pt" height="512.000000pt" viewBox="0 0 512.000000 512.000000"
 preserveAspectRatio="xMidYMid meet">

<g transform="translate(0.000000,512.000000) scale(0.100000,-0.100000)"
fill="#fff" stroke="none">
<path d="M164 4876 l-34 -34 0 -732 0 -732 34 -34 34 -34 386 0 c361 0 386 -1
386 -17 0 -10 -9 -76 -20 -147 -11 -71 -20 -138 -20 -148 0 -31 63 -88 97 -88
34 0 37 2 390 223 l283 177 775 0 c842 0 817 -2 843 55 17 37 17 1453 0 1490
-26 58 66 55 -1594 55 l-1526 0 -34 -34z m2966 -766 l0 -600 -744 0 -743 0
-239 -149 c-132 -82 -240 -148 -241 -147 -1 1 4 46 13 99 17 114 13 138 -28
172 l-30 25 -394 0 -394 0 0 600 0 600 1400 0 1400 0 0 -600z"/>
<path d="M740 4105 l0 -295 60 0 60 0 0 120 0 120 105 0 105 0 0 -120 0 -120
60 0 60 0 0 295 0 295 -60 0 -60 0 0 -115 0 -115 -105 0 -105 0 0 115 0 115
-60 0 -60 0 0 -295z"/>
<path d="M1240 4340 l0 -60 80 0 80 0 0 -235 0 -235 60 0 60 0 0 235 0 235 80
0 80 0 0 60 0 60 -220 0 -220 0 0 -60z"/>
<path d="M1740 4105 l0 -295 60 0 60 0 2 166 3 167 50 -117 50 -117 35 3 c34
3 35 5 85 118 l50 115 3 -168 2 -167 60 0 60 0 0 295 0 295 -64 0 -64 0 -63
-150 c-35 -82 -66 -150 -69 -150 -3 0 -35 68 -70 150 l-65 150 -62 0 -63 0 0
-295z"/>
<path d="M2360 4105 l0 -295 185 0 185 0 0 60 0 60 -125 0 -125 0 0 235 0 235
-60 0 -60 0 0 -295z"/>
<path d="M3581 4096 c-47 -26 -63 -84 -37 -135 26 -49 43 -51 376 -51 l310 0
0 -258 0 -257 -45 -24 c-199 -106 -203 -403 -7 -516 l51 -30 1 -157 0 -158
-1060 0 c-1153 0 -1102 2 -1128 -55 -24 -51 -4 -112 43 -133 20 -9 300 -12
1151 -12 l1126 0 34 34 34 34 0 224 0 223 46 25 c131 69 188 244 125 384 -22
52 -95 127 -140 146 l-31 12 0 325 0 325 -34 34 -34 34 -379 0 c-294 -1 -383
-4 -402 -14z m815 -920 c25 -24 34 -43 34 -66 0 -41 -56 -100 -94 -100 -105 0
-145 136 -55 186 42 23 78 17 115 -20z"/>
<path d="M1013 2496 c-167 -41 -312 -178 -359 -339 -16 -57 -22 -66 -51 -76
-45 -17 -120 -93 -146 -149 -30 -65 -30 -179 0 -244 26 -57 101 -132 148 -149
26 -10 35 -20 39 -44 3 -17 22 -64 41 -104 63 -131 184 -228 330 -266 82 -21
423 -22 464 -1 28 15 51 53 51 87 0 28 -26 75 -47 85 -10 5 -110 11 -223 14
-180 5 -211 8 -251 26 -64 30 -114 77 -144 137 -24 48 -24 53 -9 62 94 56 147
125 166 218 28 130 -34 254 -166 332 -15 9 -15 14 9 62 30 60 80 107 144 137
40 18 71 21 251 26 113 3 213 9 223 14 21 10 47 57 47 85 0 34 -23 72 -51 87
-36 18 -389 18 -466 0z m-234 -600 c67 -35 65 -143 -4 -174 -44 -20 -75 -14
-111 22 -46 46 -46 86 0 132 37 37 70 43 115 20z"/>
<path d="M1781 2096 c-52 -29 -50 -9 -51 -783 0 -539 3 -729 12 -748 24 -54
35 -55 448 -55 209 0 380 -3 380 -7 0 -5 -9 -74 -21 -156 -18 -123 -19 -152
-9 -178 21 -50 85 -73 133 -48 12 7 158 97 324 200 l303 189 781 0 781 0 34
34 34 34 0 732 0 732 -34 34 -34 34 -1529 0 c-1249 -1 -1532 -3 -1552 -14z
m2949 -786 l0 -600 -743 0 -743 0 -65 -39 c-35 -21 -143 -88 -239 -149 -96
-60 -176 -109 -178 -107 -1 1 4 48 13 103 17 112 12 137 -31 171 -26 21 -34
21 -420 21 l-394 0 0 600 0 600 1400 0 1400 0 0 -600z"/>
<path d="M2813 1591 c-168 -28 -267 -237 -193 -407 23 -55 84 -120 134 -147
92 -48 245 -12 301 71 l25 36 -51 32 -50 32 -34 -36 c-30 -33 -38 -37 -85 -37
-46 0 -55 4 -85 36 -39 43 -57 113 -45 178 10 55 36 91 84 115 33 16 44 17 77
7 22 -7 48 -24 60 -41 l22 -29 43 30 c24 16 46 33 49 39 3 5 -9 26 -27 46 -53
60 -139 89 -225 75z"/>
<path d="M3276 1589 c-95 -23 -146 -87 -146 -184 0 -53 3 -60 38 -95 27 -27
59 -44 122 -65 92 -30 120 -48 120 -76 0 -48 -103 -49 -198 -3 -29 14 -55 24
-56 23 -11 -12 -46 -91 -46 -102 0 -15 66 -47 135 -66 193 -53 350 69 290 225
-21 55 -62 84 -160 114 -84 25 -115 44 -115 70 0 24 37 50 70 50 14 0 52 -12
85 -25 33 -14 61 -25 62 -25 2 0 14 23 29 51 29 59 30 57 -51 88 -65 24 -130
31 -179 20z"/>
<path d="M3745 1586 c-92 -29 -135 -86 -135 -181 0 -53 3 -60 38 -95 27 -27
59 -44 122 -65 92 -30 120 -48 120 -76 0 -47 -103 -49 -195 -4 -29 14 -54 25
-57 25 -3 0 -16 -25 -28 -56 -26 -64 -28 -61 60 -95 69 -26 172 -35 227 -20
108 30 163 140 116 238 -21 44 -69 76 -158 103 -84 25 -115 44 -115 70 0 52
87 62 171 20 21 -11 41 -20 43 -20 7 0 59 101 54 105 -16 14 -93 45 -136 54
-64 13 -76 13 -127 -3z"/>
</g>
</svg>
