<?xml version="1.0" standalone="no"?>
<!DOCTYPE svg PUBLIC "-//W3C//DTD SVG 20010904//EN"
 "http://www.w3.org/TR/2001/REC-SVG-20010904/DTD/svg10.dtd">
<svg version="1.0" xmlns="http://www.w3.org/2000/svg"
 width="256.000000pt" height="256.000000pt" viewBox="0 0 256.000000 256.000000"
 preserveAspectRatio="xMidYMid meet">

<g transform="translate(0.000000,256.000000) scale(0.100000,-0.100000)"
fill="#fff" stroke="none">
<path d="M210 2531 c-69 -21 -130 -73 -166 -141 -18 -34 -19 -81 -19 -1110 0
-1029 1 -1076 19 -1110 26 -49 74 -98 121 -123 l40 -22 1075 0 1075 0 40 22
c47 25 95 74 121 123 18 34 19 81 19 1110 l0 1075 -22 40 c-25 47 -74 95 -123
121 -33 18 -82 19 -1095 21 -583 1 -1071 -2 -1085 -6z m2138 -131 c65 -40 72
-65 72 -252 l0 -168 -1140 0 -1140 0 0 168 c0 187 7 212 72 252 32 20 53 20
1068 20 1015 0 1036 0 1068 -20z m72 -1347 c0 -789 -1 -809 -20 -841 -11 -18
-34 -41 -52 -52 -32 -20 -53 -20 -1068 -20 -1015 0 -1036 0 -1068 20 -18 11
-41 34 -52 52 -19 32 -20 52 -20 841 l0 807 1140 0 1140 0 0 -807z"/>
<path d="M320 2240 c-11 -11 -20 -29 -20 -40 0 -39 35 -60 100 -60 65 0 100
21 100 60 0 39 -35 60 -100 60 -47 0 -64 -4 -80 -20z"/>
<path d="M640 2240 c-11 -11 -20 -29 -20 -40 0 -39 35 -60 100 -60 65 0 100
21 100 60 0 39 -35 60 -100 60 -47 0 -64 -4 -80 -20z"/>
<path d="M1403 1488 c-6 -7 -88 -220 -182 -472 -155 -418 -170 -461 -158 -485
9 -20 21 -27 48 -29 21 -2 40 3 47 10 6 7 87 220 181 472 156 418 170 461 158
485 -9 20 -21 27 -48 29 -21 2 -40 -2 -46 -10z"/>
<path d="M863 1248 c-21 -18 -84 -75 -140 -127 -84 -76 -103 -99 -103 -122 0
-23 23 -49 137 -153 107 -99 143 -126 165 -126 33 0 63 39 53 69 -3 11 -52 63
-107 116 l-102 95 80 73 c123 112 134 124 134 146 0 26 -34 61 -60 61 -10 0
-36 -15 -57 -32z"/>
<path d="M1600 1260 c-11 -11 -20 -28 -20 -37 0 -10 48 -64 106 -120 l106
-102 -68 -63 c-157 -143 -161 -150 -128 -196 32 -46 60 -31 207 103 116 107
137 130 137 155 0 25 -21 48 -137 155 -144 132 -165 143 -203 105z"/>
</g>
</svg>
