<?xml version="1.0" standalone="no"?>
<!DOCTYPE svg PUBLIC "-//W3C//DTD SVG 20010904//EN"
 "http://www.w3.org/TR/2001/REC-SVG-20010904/DTD/svg10.dtd">
<svg version="1.0" xmlns="http://www.w3.org/2000/svg"
 width="100.000000pt" height="100.000000pt" viewBox="0 0 100.000000 100.000000"
 preserveAspectRatio="xMidYMid meet">

<g transform="translate(0.000000,100.000000) scale(0.100000,-0.100000)"
fill="#fff" stroke="none">
<path d="M352 969 c-70 -13 -148 -54 -195 -101 -117 -118 -151 -339 -74 -487
94 -181 90 -169 95 -267 4 -83 7 -94 23 -94 17 0 19 8 19 74 0 92 -23 169 -78
260 -48 80 -67 156 -59 246 11 132 74 238 173 292 135 73 349 59 462 -30 47
-38 95 -126 113 -207 8 -35 33 -94 61 -142 26 -44 48 -84 48 -87 0 -3 -22 -17
-50 -31 l-50 -25 0 -78 c0 -60 -5 -84 -20 -110 -28 -45 -80 -66 -147 -58 l-53
6 0 -55 c0 -48 2 -55 20 -55 16 0 20 7 20 30 0 29 2 30 43 30 107 0 177 79
177 200 l0 66 45 22 c66 32 67 53 7 156 -29 48 -55 108 -62 139 -24 117 -99
225 -188 271 -77 40 -227 56 -330 35z"/>
<path d="M486 711 c-3 -5 -20 -73 -37 -151 -22 -102 -28 -145 -20 -153 7 -7
14 -8 21 -1 13 13 73 292 65 304 -8 12 -22 13 -29 1z"/>
<path d="M285 614 c-19 -26 -35 -50 -35 -54 0 -12 70 -100 80 -100 22 0 20 24
-5 61 l-28 39 28 39 c25 37 27 61 5 61 -5 0 -25 -21 -45 -46z"/>
<path d="M595 649 c-4 -5 5 -28 20 -50 l28 -39 -28 -39 c-25 -37 -27 -61 -5
-61 10 0 80 88 80 100 0 12 -70 100 -80 100 -5 0 -12 -5 -15 -11z"/>
</g>
</svg>
